<svg width="216" height="168" viewBox="0 0 216 168" fill="none" xmlns="http://www.w3.org/2000/svg">
<rect y="0.736328" width="215.639" height="166.527" rx="15" fill="#108CFF"/>
<path d="M36.2473 134.433C33.7033 134.433 31.7307 133.959 30.3293 133.012C28.9328 132.06 28.2346 130.737 28.2346 129.042C28.2346 127.323 28.9304 125.988 30.322 125.036C31.7184 124.079 33.6935 123.6 36.2473 123.6C38.801 123.6 40.7761 124.079 42.1725 125.036C43.569 125.988 44.2673 127.319 44.2673 129.028C44.2673 130.732 43.569 132.06 42.1725 133.012C40.7761 133.959 38.801 134.433 36.2473 134.433ZM31.9553 131.767C32.9269 132.392 34.3576 132.704 36.2473 132.704C38.1369 132.704 39.5676 132.389 40.5392 131.759C41.5158 131.125 42.0041 130.214 42.0041 129.028C42.0041 127.831 41.5158 126.916 40.5392 126.281C39.5676 125.641 38.1369 125.321 36.2473 125.321C34.3576 125.321 32.9269 125.641 31.9553 126.281C30.9836 126.921 30.4977 127.841 30.4977 129.042C30.4977 130.229 30.9836 131.137 31.9553 131.767ZM54.1769 134.433C53.0344 134.433 52.0163 134.277 51.1227 133.964C50.2292 133.652 49.5212 133.212 48.9987 132.646V137.267H46.882V126.076H48.8156L48.9401 127.782C49.4528 127.182 50.1608 126.718 51.0641 126.391C51.9724 126.059 53.0099 125.893 54.1769 125.893C55.9348 125.893 57.3166 126.276 58.3224 127.043C59.3283 127.809 59.8312 128.852 59.8312 130.17C59.8312 131.493 59.3332 132.536 58.3371 133.298C57.341 134.054 55.9543 134.433 54.1769 134.433ZM53.4518 132.873C54.8239 132.873 55.8664 132.638 56.5793 132.17C57.2971 131.701 57.6559 131.034 57.6559 130.17C57.6559 129.311 57.2971 128.647 56.5793 128.178C55.8664 127.704 54.8239 127.467 53.4518 127.467C52.0651 127.467 50.9763 127.712 50.1852 128.2C49.3942 128.683 48.9987 129.345 48.9987 130.185C48.9987 131.01 49.3942 131.664 50.1852 132.148C50.9811 132.631 52.07 132.873 53.4518 132.873ZM62.3361 134.264V126.076H72.0114V127.68H64.4528V134.264H62.3361ZM73.2199 128.442C73.4933 127.568 74.0939 126.925 75.0217 126.515C75.9543 126.1 77.2678 125.893 78.9621 125.893C80.3293 125.893 81.4255 126.008 82.2507 126.237C83.0759 126.466 83.6716 126.813 84.0378 127.277C84.404 127.741 84.5871 128.349 84.5871 129.101V132.133C84.5871 132.392 84.6359 132.585 84.7336 132.712C84.8361 132.839 85.0192 132.902 85.2829 132.902C85.4001 132.902 85.5344 132.885 85.6857 132.851L85.6418 134.279C85.2072 134.382 84.8312 134.433 84.5139 134.433C83.2834 134.433 82.6389 133.827 82.5803 132.616C82.009 133.188 81.2302 133.634 80.2438 133.957C79.2575 134.274 78.1711 134.433 76.9846 134.433C75.6418 134.433 74.6164 134.225 73.9084 133.81C73.2004 133.39 72.8464 132.787 72.8464 132.001C72.8464 131.235 73.1686 130.651 73.8132 130.251C74.4626 129.85 75.5002 129.609 76.926 129.526L82.551 129.24C82.5461 128.805 82.4289 128.459 82.1994 128.2C81.9748 127.936 81.5988 127.738 81.0715 127.607C80.5441 127.475 79.8361 127.409 78.9474 127.409C77.8195 127.409 76.9675 127.524 76.3913 127.753C75.8151 127.978 75.4733 128.329 75.3659 128.808L73.2199 128.442ZM74.9777 131.906C74.9777 132.629 75.7712 132.99 77.3581 132.99C78.2956 132.99 79.1599 132.892 79.9509 132.697C80.7468 132.497 81.384 132.211 81.8625 131.84C82.341 131.469 82.5803 131.051 82.5803 130.588V130.485L76.8015 130.815C76.1716 130.854 75.7101 130.959 75.4172 131.13C75.1242 131.3 74.9777 131.559 74.9777 131.906ZM87.7951 134.264V126.076H89.9118V129.167H97.529V126.076H99.6457V134.264H97.529V130.756H89.9118V134.264H87.7951ZM102.912 134.264V126.076H105.014V132.118L112.602 126.076H114.719V134.264H112.602V128.237L105.014 134.264H102.912ZM129.433 131.906C129.433 132.775 128.908 133.415 127.859 133.825C126.814 134.23 125.229 134.433 123.105 134.433C121.216 134.433 119.77 134.23 118.769 133.825C117.773 133.415 117.187 132.736 117.011 131.789L119.157 131.386C119.255 131.982 119.604 132.406 120.205 132.66C120.805 132.909 121.777 133.034 123.12 133.034C124.482 133.034 125.493 132.934 126.152 132.734C126.811 132.529 127.141 132.209 127.141 131.774C127.141 131.564 127.077 131.391 126.95 131.254C126.828 131.112 126.643 131.005 126.394 130.932C126.145 130.854 125.869 130.8 125.566 130.771C125.268 130.741 124.907 130.727 124.482 130.727H120.93V129.357H124.467C126.137 129.357 126.972 129.023 126.972 128.354C126.972 127.983 126.679 127.716 126.093 127.555C125.508 127.389 124.521 127.306 123.134 127.306C121.85 127.306 120.913 127.424 120.322 127.658C119.731 127.892 119.367 128.29 119.231 128.852L117.209 128.427C117.419 127.538 118.022 126.894 119.018 126.493C120.014 126.093 121.391 125.893 123.149 125.893C125.219 125.893 126.74 126.073 127.712 126.435C128.689 126.796 129.177 127.355 129.177 128.112C129.177 128.62 128.989 129.023 128.613 129.32C128.237 129.618 127.666 129.841 126.899 129.987C127.754 130.099 128.388 130.304 128.803 130.602C129.223 130.9 129.433 131.335 129.433 131.906ZM131.272 128.442C131.545 127.568 132.146 126.925 133.073 126.515C134.006 126.1 135.32 125.893 137.014 125.893C138.381 125.893 139.477 126.008 140.302 126.237C141.128 126.466 141.723 126.813 142.09 127.277C142.456 127.741 142.639 128.349 142.639 129.101V132.133C142.639 132.392 142.688 132.585 142.785 132.712C142.888 132.839 143.071 132.902 143.335 132.902C143.452 132.902 143.586 132.885 143.737 132.851L143.694 134.279C143.259 134.382 142.883 134.433 142.566 134.433C141.335 134.433 140.691 133.827 140.632 132.616C140.061 133.188 139.282 133.634 138.296 133.957C137.309 134.274 136.223 134.433 135.036 134.433C133.694 134.433 132.668 134.225 131.96 133.81C131.252 133.39 130.898 132.787 130.898 132.001C130.898 131.235 131.22 130.651 131.865 130.251C132.514 129.85 133.552 129.609 134.978 129.526L140.603 129.24C140.598 128.805 140.481 128.459 140.251 128.2C140.027 127.936 139.651 127.738 139.123 127.607C138.596 127.475 137.888 127.409 136.999 127.409C135.871 127.409 135.019 127.524 134.443 127.753C133.867 127.978 133.525 128.329 133.418 128.808L131.272 128.442ZM133.029 131.906C133.029 132.629 133.823 132.99 135.41 132.99C136.347 132.99 137.212 132.892 138.003 132.697C138.799 132.497 139.436 132.211 139.914 131.84C140.393 131.469 140.632 131.051 140.632 130.588V130.485L134.853 130.815C134.223 130.854 133.762 130.959 133.469 131.13C133.176 131.3 133.029 131.559 133.029 131.906ZM145.847 134.264V126.076H147.964V132.646H155.163V126.076H157.28V132.646H158.825V136.696H156.811V134.264H145.847ZM160.832 134.264V126.076H162.934V132.118L170.522 126.076H172.639V134.264H170.522V128.237L162.934 134.264H160.832ZM175.129 128.713C175.129 127.873 175.446 127.223 176.081 126.764C176.721 126.305 177.622 126.076 178.784 126.076H186.753V134.264H184.636V131.371H181.23L177.707 134.264H175.005L178.667 131.247C176.308 131.144 175.129 130.299 175.129 128.713ZM178.952 129.958H184.636V127.467H178.952C178.371 127.467 177.929 127.575 177.627 127.79C177.329 128 177.18 128.307 177.18 128.713C177.18 129.543 177.771 129.958 178.952 129.958Z" fill="white"/>
<path fill-rule="evenodd" clip-rule="evenodd" d="M137.394 22.0161C151.986 22.1324 168.21 25.2808 173.161 39.008C178.495 53.796 170.843 69.932 157.889 78.8384C145.927 87.0626 130.48 84.8372 118.566 76.5441C105.718 67.6012 94.7193 53.2201 99.8284 38.4236C104.759 24.1442 122.288 21.8957 137.394 22.0161Z" fill="#3099FA"/>
<g clip-path="url(#clip0_2_55)">
<path d="M139.962 94.7255H137.853V78.149C137.853 77.5943 137.403 77.1446 136.848 77.1446C136.293 77.1446 135.844 77.5943 135.844 78.149V94.7255H124.313V85.4493H130.078C130.633 85.4493 131.083 84.9996 131.083 84.4449C131.083 83.8901 130.633 83.4404 130.078 83.4404H124.313V78.2519H130.078C130.633 78.2519 131.083 77.8022 131.083 77.2474C131.083 76.6927 130.633 76.243 130.078 76.243H124.313V71.0582H130.078C130.633 71.0582 131.083 70.6085 131.083 70.0538C131.083 69.499 130.633 69.0493 130.078 69.0493H124.313V63.8645H130.078C130.633 63.8645 131.083 63.4148 131.083 62.8601C131.083 62.3054 130.633 61.8556 130.078 61.8556H124.313V55.9259H135.844V73.8051C135.844 74.3599 136.293 74.8096 136.848 74.8096C137.403 74.8096 137.853 74.3599 137.853 73.8051V55.8193C137.853 54.7704 136.999 53.9171 135.95 53.9171H134.032V51.3954C134.032 50.8406 133.583 50.3909 133.028 50.3909C132.473 50.3909 132.023 50.8406 132.023 51.3954V53.9171H128.776V49.7335C128.776 49.1788 128.326 48.729 127.771 48.729C127.216 48.729 126.767 49.1788 126.767 49.7335V53.9171H124.313V40.0718H124.425C125.292 40.0718 125.998 39.3659 125.998 38.4982V34.3188C125.998 33.4511 125.292 32.7451 124.425 32.7451H95.5389V30.636C95.5389 30.0812 95.0891 29.6315 94.5344 29.6315C93.9797 29.6315 93.53 30.0812 93.53 30.636V32.7451H90.2821V29.1689C90.2821 28.6142 89.8324 28.1645 89.2777 28.1645C88.723 28.1645 88.2733 28.6142 88.2733 29.1689V32.745H84.5367C83.6712 32.745 82.9669 33.4509 82.9669 34.3186V38.4981C82.9669 39.3658 83.671 40.0717 84.5367 40.0717H84.6516V68.1154C84.1899 68.0205 83.7154 67.9681 83.2302 67.9681C78.7982 67.9681 75.1925 72.1034 75.1925 77.1862C75.1925 80.8624 77.0791 84.0418 79.7998 85.5206V94.7255H75.6774C75.1227 94.7255 74.673 95.1753 74.673 95.73C74.673 96.2847 75.1227 96.7344 75.6774 96.7344H80.8042H85.6561H96.7694H112.192H123.309H139.962C140.516 96.7344 140.966 96.2847 140.966 95.73C140.966 95.1753 140.516 94.7255 139.962 94.7255ZM77.2014 77.1862C77.2014 73.211 79.9058 69.977 83.2302 69.977C83.9359 69.977 84.6132 70.1241 85.2432 70.3918C85.2629 70.4006 85.283 70.4087 85.3033 70.4163C87.6094 71.4293 89.259 74.0817 89.259 77.1861C89.259 81.1613 86.5545 84.3953 83.2302 84.3953C79.9058 84.3953 77.2014 81.1614 77.2014 77.1862ZM81.8087 94.7255V86.257C82.2704 86.352 82.7449 86.4043 83.2302 86.4043C83.7154 86.4043 84.1899 86.352 84.6516 86.257V94.7255H81.8087ZM112.731 79.3221H96.2303V76.3302H112.731V79.3221ZM97.7738 94.7255V81.331H103.478V94.7255H97.7738ZM105.487 94.7255V81.331H111.187V94.7255H105.487ZM113.196 94.7255V81.331H113.204C114.051 81.331 114.74 80.6404 114.74 79.7916V75.8605C114.74 75.0118 114.051 74.3212 113.204 74.3212H95.7608C94.9121 74.3212 94.2214 75.0117 94.2214 75.8605V79.7916C94.2214 80.6403 94.912 81.331 95.7608 81.331H95.7649V94.7255H86.6605V85.5206C89.3812 84.0418 91.2678 80.8625 91.2678 77.1862C91.2678 73.5101 89.3812 70.3308 86.6605 68.852V40.0718H102.863C103.417 40.0718 103.867 39.6221 103.867 39.0674C103.867 38.5127 103.417 38.0629 102.863 38.0629H84.9757V34.7539H123.989V38.0629H107.31C106.755 38.0629 106.305 38.5127 106.305 39.0674C106.305 39.6221 106.755 40.0718 107.31 40.0718H122.305V94.7255H113.196Z" fill="white"/>
<path d="M97.1475 44.3817H92.8574C92.0845 44.3817 91.4556 45.0105 91.4556 45.7835V52.7861C91.4556 53.5589 92.0843 54.1879 92.8574 54.1879H97.1475C97.9204 54.1879 98.5492 53.5591 98.5492 52.7861V45.7835C98.5492 45.0105 97.9204 44.3817 97.1475 44.3817ZM96.5403 52.179H93.4645V46.3906H96.5403V52.179Z" fill="white"/>
<path d="M106.916 44.3817H102.626C101.853 44.3817 101.224 45.0105 101.224 45.7835V52.7861C101.224 53.5589 101.853 54.1879 102.626 54.1879H106.916C107.689 54.1879 108.318 53.5591 108.318 52.7861V45.7835C108.318 45.0105 107.689 44.3817 106.916 44.3817ZM106.309 52.179H103.233V46.3906H106.309V52.179Z" fill="white"/>
<path d="M97.1475 58.2074H92.8574C92.0845 58.2074 91.4556 58.8361 91.4556 59.6092V66.6117C91.4556 67.3846 92.0843 68.0135 92.8574 68.0135H97.1475C97.9204 68.0135 98.5492 67.3848 98.5492 66.6117V59.6092C98.5492 58.8361 97.9204 58.2074 97.1475 58.2074ZM96.5403 66.0045H93.4645V60.2161H96.5403V66.0045Z" fill="white"/>
<path d="M106.916 58.2074H102.626C101.853 58.2074 101.224 58.8361 101.224 59.6092V66.6117C101.224 67.3846 101.853 68.0135 102.626 68.0135H106.916C107.689 68.0135 108.318 67.3848 108.318 66.6117V59.6092C108.318 58.8361 107.689 58.2074 106.916 58.2074ZM106.309 66.0045H103.233V60.2161H106.309V66.0045Z" fill="white"/>
<path d="M116.685 44.3817H112.394C111.621 44.3817 110.993 45.0105 110.993 45.7835V52.7861C110.993 53.5589 111.621 54.1879 112.394 54.1879H116.685C117.457 54.1879 118.086 53.5591 118.086 52.7861V45.7835C118.086 45.0105 117.457 44.3817 116.685 44.3817ZM116.077 52.179H113.001V46.3906H116.077V52.179Z" fill="white"/>
<path d="M116.685 58.2074H112.394C111.621 58.2074 110.993 58.8361 110.993 59.6092V66.6117C110.993 67.3846 111.621 68.0135 112.394 68.0135H116.685C117.457 68.0135 118.086 67.3848 118.086 66.6117V59.6092C118.086 58.8361 117.457 58.2074 116.685 58.2074ZM116.077 66.0045H113.001V60.2161H116.077V66.0045Z" fill="white"/>
</g>
<defs>
<clipPath id="clip0_2_55">
<rect width="68.5699" height="68.5699" fill="white" transform="translate(73.5345 28.1645)"/>
</clipPath>
</defs>
</svg>
