<svg width="217" height="168" viewBox="0 0 217 168" fill="none" xmlns="http://www.w3.org/2000/svg">
<rect x="0.872314" y="0.736359" width="215.639" height="166.527" rx="15" fill="#108CFF"/>
<path d="M50.2639 133.207V122.704H61.9021V124.433H52.4831V133.207H50.2639ZM68.384 133.376C66.3234 133.376 64.7219 132.997 63.5793 132.24C62.4416 131.484 61.8728 130.431 61.8728 129.084C61.8728 127.77 62.4392 126.735 63.572 125.978C64.7097 125.217 66.2868 124.836 68.3034 124.836C70.2858 124.836 71.8459 125.204 72.9836 125.942C74.1262 126.679 74.6975 127.68 74.6975 128.945C74.6975 129.208 74.6779 129.435 74.6389 129.626H64.0041C64.2824 131.115 65.7424 131.86 68.384 131.86C69.6291 131.86 70.5813 131.752 71.2404 131.537C71.9045 131.318 72.3269 130.983 72.5075 130.534L74.6535 130.915C74.3068 131.769 73.6428 132.394 72.6613 132.79C71.6848 133.18 70.259 133.376 68.384 133.376ZM68.3034 126.308C65.8278 126.308 64.4094 126.977 64.048 128.315H72.5075C72.1853 126.977 70.7839 126.308 68.3034 126.308ZM82.9152 133.376C80.8449 133.376 79.2385 133.002 78.0959 132.255C76.9582 131.508 76.3894 130.461 76.3894 129.113C76.3894 127.765 76.9582 126.716 78.0959 125.964C79.2385 125.212 80.8449 124.836 82.9152 124.836C84.9904 124.836 86.5969 125.212 87.7346 125.964C88.8723 126.716 89.4411 127.765 89.4411 129.113C89.4411 130.466 88.8747 131.515 87.7419 132.262C86.6091 133.005 85.0002 133.376 82.9152 133.376ZM79.656 131.127C80.3884 131.586 81.4748 131.816 82.9152 131.816C84.3557 131.816 85.4397 131.586 86.1672 131.127C86.8996 130.663 87.2658 129.992 87.2658 129.113C87.2658 128.229 86.9021 127.558 86.1745 127.099C85.447 126.64 84.3605 126.41 82.9152 126.41C81.4699 126.41 80.3835 126.64 79.656 127.099C78.9284 127.558 78.5647 128.229 78.5647 129.113C78.5647 129.992 78.9284 130.663 79.656 131.127ZM90.4812 135.639V131.677H91.6457C92.1877 131.247 92.5637 130.624 92.7736 129.809C92.9836 128.989 93.1032 127.665 93.1325 125.839L93.1618 125.019H103.064V131.677H104.595V135.639H102.581V133.207H92.5026V135.639H90.4812ZM94.5754 130.571C94.4191 130.976 94.1823 131.344 93.8649 131.677H101.035V126.506H95.1101C95.0856 127.507 95.0344 128.32 94.9563 128.945C94.8781 129.57 94.7512 130.112 94.5754 130.571ZM112.446 133.376C110.386 133.376 108.784 132.997 107.642 132.24C106.504 131.484 105.935 130.431 105.935 129.084C105.935 127.77 106.502 126.735 107.634 125.978C108.772 125.217 110.349 124.836 112.366 124.836C114.348 124.836 115.908 125.204 117.046 125.942C118.189 126.679 118.76 127.68 118.76 128.945C118.76 129.208 118.74 129.435 118.701 129.626H108.067C108.345 131.115 109.805 131.86 112.446 131.86C113.692 131.86 114.644 131.752 115.303 131.537C115.967 131.318 116.389 130.983 116.57 130.534L118.716 130.915C118.369 131.769 117.705 132.394 116.724 132.79C115.747 133.18 114.321 133.376 112.446 133.376ZM112.366 126.308C109.89 126.308 108.472 126.977 108.111 128.315H116.57C116.248 126.977 114.846 126.308 112.366 126.308ZM132.676 130.849C132.676 131.718 132.151 132.358 131.101 132.768C130.056 133.173 128.472 133.376 126.348 133.376C124.458 133.376 123.013 133.173 122.012 132.768C121.016 132.358 120.43 131.679 120.254 130.732L122.4 130.329C122.498 130.925 122.847 131.349 123.447 131.603C124.048 131.852 125.02 131.977 126.363 131.977C127.725 131.977 128.736 131.877 129.395 131.677C130.054 131.471 130.383 131.152 130.383 130.717C130.383 130.507 130.32 130.334 130.193 130.197C130.071 130.055 129.885 129.948 129.636 129.875C129.387 129.797 129.112 129.743 128.809 129.714C128.511 129.684 128.15 129.67 127.725 129.67H124.173V128.3H127.71C129.38 128.3 130.215 127.966 130.215 127.297C130.215 126.926 129.922 126.659 129.336 126.498C128.75 126.332 127.764 126.249 126.377 126.249C125.093 126.249 124.155 126.366 123.565 126.601C122.974 126.835 122.61 127.233 122.473 127.795L120.452 127.37C120.662 126.481 121.265 125.837 122.261 125.436C123.257 125.036 124.634 124.836 126.392 124.836C128.462 124.836 129.983 125.016 130.955 125.378C131.931 125.739 132.42 126.298 132.42 127.055C132.42 127.563 132.232 127.966 131.856 128.263C131.48 128.561 130.908 128.783 130.142 128.93C130.996 129.042 131.631 129.247 132.046 129.545C132.466 129.843 132.676 130.278 132.676 130.849ZM135.203 133.207V125.019H137.305V131.061L144.893 125.019H147.009V133.207H144.893V127.179L137.305 133.207H135.203ZM149.5 127.656C149.5 126.816 149.817 126.166 150.452 125.707C151.092 125.248 151.992 125.019 153.154 125.019H161.123V133.207H159.007V130.314H155.601L152.078 133.207H149.375L153.037 130.19C150.679 130.087 149.5 129.242 149.5 127.656ZM153.323 128.901H159.007V126.41H153.323C152.742 126.41 152.3 126.518 151.997 126.733C151.699 126.943 151.55 127.25 151.55 127.656C151.55 128.486 152.141 128.901 153.323 128.901Z" fill="white"/>
<path fill-rule="evenodd" clip-rule="evenodd" d="M138.293 22.0162C152.885 22.1325 169.109 25.2809 174.06 39.0081C179.394 53.7961 171.742 69.9321 158.788 78.8386C146.826 87.0627 131.379 84.8374 119.465 76.5443C106.617 67.6013 95.6184 53.2202 100.727 38.4238C105.658 24.1443 123.187 21.8958 138.293 22.0162Z" fill="#3099FA"/>
<g clip-path="url(#clip0_41_379)">
<path d="M107.245 52.7616C112.084 52.7616 116.021 48.8246 116.021 43.9852C116.021 40.8474 114.365 38.0906 111.882 36.5386V31.1721C111.882 29.5137 110.533 28.1645 108.874 28.1645H105.616C103.957 28.1645 102.608 29.5137 102.608 31.1721V36.5386C100.125 38.0904 98.4685 40.8474 98.4685 43.9852C98.4685 48.8246 102.406 52.7616 107.245 52.7616ZM104.617 31.1721C104.617 30.6215 105.065 30.1734 105.616 30.1734H108.874C109.425 30.1734 109.873 30.6215 109.873 31.1721V35.6113C109.043 35.3503 108.16 35.209 107.245 35.209C106.33 35.209 105.447 35.3503 104.617 35.6113V31.1721ZM107.245 37.2178C110.976 37.2178 114.012 40.2536 114.012 43.9852C114.012 47.7167 110.976 50.7527 107.245 50.7527C103.513 50.7527 100.477 47.7167 100.477 43.9852C100.477 40.2536 103.513 37.2178 107.245 37.2178Z" fill="white"/>
<path d="M107.245 47.6036C109.24 47.6036 110.863 45.9804 110.863 43.9853C110.863 41.9902 109.24 40.3672 107.245 40.3672C105.25 40.3672 103.627 41.9902 103.627 43.9853C103.627 45.9804 105.25 47.6036 107.245 47.6036ZM107.245 42.3759C108.132 42.3759 108.854 43.0979 108.854 43.9853C108.854 44.8728 108.132 45.5948 107.245 45.5948C106.357 45.5948 105.635 44.8728 105.635 43.9853C105.635 43.0978 106.357 42.3759 107.245 42.3759Z" fill="white"/>
<path d="M136.816 79.6678L134.959 75.9409C134.18 74.3773 132.273 73.7391 130.71 74.5183C129.142 75.2998 128.506 77.2 129.287 78.7674L129.819 79.8349L129.052 80.2171C128.128 77.467 126.857 73.9356 125.174 69.8786H127.731C129.308 69.8786 130.591 68.5955 130.591 67.0183C130.591 65.4411 129.308 64.158 127.731 64.158H122.669C122.026 62.7641 121.34 61.3301 120.61 59.864L116.691 52.0014C116.444 51.5049 115.841 51.3032 115.344 51.5505C114.848 51.798 114.646 52.401 114.893 52.8976L118.812 60.7601C124.592 72.3585 127.531 81.9174 128.637 85.516C128.846 86.1957 128.998 86.6901 129.108 87.0042C129.653 88.7577 129.127 90.1247 128.572 90.9779L110.792 55.3008C110.544 54.8045 109.941 54.6026 109.445 54.8499C108.948 55.0974 108.746 55.7004 108.994 56.197L112.961 64.158H101.903L105.833 56.2722C106.081 55.7756 105.879 55.1725 105.382 54.925C104.885 54.6775 104.283 54.8795 104.035 55.3759L87.9716 87.6098C87.8963 87.761 87.721 87.809 87.5828 87.7401C86.2668 87.0844 85.3454 86.6252 83.8567 85.8834C83.7138 85.812 83.6542 85.6396 83.7265 85.4946L99.8381 53.1649C100.086 52.6683 99.8836 52.0653 99.3871 51.8178C98.8901 51.5703 98.2875 51.7721 98.04 52.2687L92.115 64.1578H86.7586C85.1815 64.1578 83.8984 65.441 83.8984 67.0182C83.8984 68.5953 85.1815 69.8785 86.7586 69.8785H89.2641L81.9285 84.5985C81.5322 85.3936 81.6231 86.3442 82.1888 87.0551L81.2892 88.8601C80.6998 90.043 80.9545 91.4148 81.8251 92.3123L80.3416 95.2805C80.0935 95.7769 80.2947 96.3801 80.7909 96.6281C81.2892 96.8771 81.8912 96.673 82.1384 96.1788L83.6221 93.2103C83.7453 93.2256 83.8686 93.2338 83.9916 93.2338C85.1033 93.2338 86.1751 92.6192 86.7037 91.5585L87.5914 89.7774C88.4798 89.8241 89.3475 89.3527 89.7694 88.5058L99.0523 69.8786H115.812L127.439 93.2095C127.439 93.2102 127.44 93.2107 127.44 93.2113L128.918 96.1774C129.165 96.6739 129.768 96.8761 130.264 96.6286C130.761 96.3813 130.963 95.7783 130.716 95.2817L129.563 92.9671C130.486 91.9471 132.039 89.6346 131.019 86.3873C131.016 86.3768 131.013 86.3663 131.009 86.3559C130.912 86.0796 130.763 85.5956 130.557 84.9254C130.34 84.2175 130.051 83.2805 129.686 82.1456L130.715 81.633L131.144 82.4944C131.919 84.0501 133.822 84.6997 135.393 83.917C136.957 83.1376 137.595 81.2315 136.816 79.6678ZM86.7586 67.8697C86.2891 67.8697 85.9072 67.4878 85.9072 67.0183C85.9072 66.5488 86.2892 66.1668 86.7586 66.1668H91.1139L90.2652 67.8698H86.7586V67.8697ZM83.5435 91.1185C83.0422 90.8689 82.8363 90.2599 83.0874 89.7561L83.8905 88.1446L85.709 89.0509L84.9059 90.6625C84.656 91.1639 84.045 91.3683 83.5435 91.1185ZM127.731 66.1668C128.201 66.1668 128.583 66.5489 128.583 67.0183C128.583 67.4879 128.2 67.8697 127.731 67.8697H124.324C124.083 67.3103 123.835 66.7426 123.579 66.1667L127.731 66.1668ZM100.054 67.8697L100.902 66.1667H113.962L114.811 67.8697H100.054ZM134.497 82.1189C133.925 82.404 133.227 82.1703 132.942 81.5983C132.343 80.3966 131.807 79.3202 131.085 77.8713C130.799 77.2963 131.033 76.6014 131.606 76.3163C132.179 76.0301 132.876 76.2663 133.161 76.837L135.018 80.5639C135.303 81.136 135.07 81.8337 134.497 82.1189Z" fill="white"/>
</g>
<defs>
<clipPath id="clip0_41_379">
<rect width="68.5699" height="68.5699" fill="white" transform="translate(74.4069 28.1645)"/>
</clipPath>
</defs>
</svg>
