<svg width="217" height="168" viewBox="0 0 217 168" fill="none" xmlns="http://www.w3.org/2000/svg">
<rect x="0.744385" y="0.736328" width="215.639" height="166.527" rx="15" fill="#108CFF"/>
<path d="M54.5185 134.264V123.761H66.1567V125.49H56.7377V134.264H54.5185ZM72.6386 134.433C70.5781 134.433 68.9765 134.054 67.8339 133.298C66.6962 132.541 66.1274 131.488 66.1274 130.141C66.1274 128.827 66.6938 127.792 67.8266 127.035C68.9643 126.274 70.5414 125.893 72.558 125.893C74.5405 125.893 76.1005 126.261 77.2382 126.999C78.3808 127.736 78.9521 128.737 78.9521 130.002C78.9521 130.265 78.9326 130.492 78.8935 130.683H68.2587C68.537 132.172 69.997 132.917 72.6386 132.917C73.8837 132.917 74.8359 132.809 75.4951 132.594C76.1591 132.375 76.5815 132.04 76.7621 131.591L78.9081 131.972C78.5615 132.826 77.8974 133.451 76.916 133.847C75.9394 134.237 74.5136 134.433 72.6386 134.433ZM72.558 127.365C70.0825 127.365 68.664 128.034 68.3027 129.372H76.7621C76.4399 128.034 75.0385 127.365 72.558 127.365ZM87.1699 134.433C85.0995 134.433 83.4931 134.059 82.3505 133.312C81.2128 132.565 80.644 131.518 80.644 130.17C80.644 128.822 81.2128 127.773 82.3505 127.021C83.4931 126.269 85.0995 125.893 87.1699 125.893C89.2451 125.893 90.8515 126.269 91.9892 127.021C93.1269 127.773 93.6957 128.822 93.6957 130.17C93.6957 131.523 93.1293 132.572 91.9965 133.32C90.8637 134.062 89.2548 134.433 87.1699 134.433ZM83.9106 132.184C84.643 132.643 85.7294 132.873 87.1699 132.873C88.6103 132.873 89.6943 132.643 90.4218 132.184C91.1542 131.72 91.5204 131.049 91.5204 130.17C91.5204 129.286 91.1567 128.615 90.4291 128.156C89.7016 127.697 88.6152 127.467 87.1699 127.467C85.7245 127.467 84.6381 127.697 83.9106 128.156C83.183 128.615 82.8193 129.286 82.8193 130.17C82.8193 131.049 83.183 131.72 83.9106 132.184ZM94.8676 132.821C95.561 132.778 96.0761 132.568 96.413 132.192C96.6865 131.894 96.8818 131.435 96.999 130.815C97.1161 130.195 97.1894 129.255 97.2187 127.995L97.27 126.076H107.377V134.264H105.261V127.709H99.2621V128.251C99.228 129.711 99.1083 130.844 98.9033 131.65C98.6982 132.455 98.3832 133.068 97.9584 133.488C97.6362 133.81 97.2382 134.042 96.7646 134.184C96.2958 134.325 95.7026 134.396 94.9848 134.396L94.8676 132.821ZM116.408 134.433C114.338 134.433 112.731 134.059 111.589 133.312C110.451 132.565 109.882 131.518 109.882 130.17C109.882 128.822 110.451 127.773 111.589 127.021C112.731 126.269 114.338 125.893 116.408 125.893C118.483 125.893 120.09 126.269 121.227 127.021C122.365 127.773 122.934 128.822 122.934 130.17C122.934 131.523 122.368 132.572 121.235 133.32C120.102 134.062 118.493 134.433 116.408 134.433ZM113.149 132.184C113.881 132.643 114.968 132.873 116.408 132.873C117.849 132.873 118.933 132.643 119.66 132.184C120.393 131.72 120.759 131.049 120.759 130.17C120.759 129.286 120.395 128.615 119.667 128.156C118.94 127.697 117.853 127.467 116.408 127.467C114.963 127.467 113.876 127.697 113.149 128.156C112.421 128.615 112.058 129.286 112.058 130.17C112.058 131.049 112.421 131.72 113.149 132.184ZM125.439 134.264V126.076H135.114V127.68H127.556V134.264H125.439ZM137.011 134.264V126.076H139.113V132.118L146.701 126.076H148.818V134.264H146.701V128.237L139.113 134.264H137.011ZM151.308 128.713C151.308 127.873 151.625 127.223 152.26 126.764C152.9 126.305 153.801 126.076 154.963 126.076H162.932V134.264H160.815V131.371H157.409L153.886 134.264H151.184L154.846 131.247C152.487 131.144 151.308 130.299 151.308 128.713ZM155.131 129.958H160.815V127.467H155.131C154.55 127.467 154.108 127.575 153.806 127.79C153.508 128 153.359 128.307 153.359 128.713C153.359 129.543 153.95 129.958 155.131 129.958Z" fill="white"/>
<path fill-rule="evenodd" clip-rule="evenodd" d="M138.192 22.0161C152.784 22.1324 169.007 25.2808 173.959 39.008C179.293 53.796 171.641 69.932 158.687 78.8385C146.725 87.0626 131.278 84.8373 119.363 76.5442C106.516 67.6012 95.5169 53.2201 100.626 38.4237C105.557 24.1442 123.085 21.8958 138.192 22.0161Z" fill="#3099FA"/>
<g clip-path="url(#clip0_2_155)">
<path d="M142.849 43.0499C142.849 42.7419 142.707 42.451 142.465 42.2604C142.223 42.0699 141.908 42.0016 141.608 42.0735C140.083 42.4427 132.03 44.3916 130.654 44.7248C130.346 44.7993 130.091 45.0147 129.967 45.306L126.024 54.5257L125.148 54.6376C125.337 53.6768 125.435 52.6903 125.435 51.6888C125.435 47.6659 123.868 43.8839 121.023 41.0393C120.669 40.6843 120.291 40.3425 119.901 40.0235C119.472 39.6723 118.839 39.7353 118.487 40.1649C118.136 40.5941 118.199 41.2271 118.629 41.5783C118.967 41.855 119.295 42.1517 119.603 42.4598C122.068 44.9249 123.426 48.2026 123.426 51.6888C123.426 55.1751 122.068 58.4527 119.603 60.9179C114.514 66.0068 106.233 66.0068 101.145 60.9179C98.7331 58.5063 97.3218 55.25 97.3218 51.6888C97.3218 48.2026 98.6795 44.9249 101.145 42.4598C104.952 38.6529 110.606 37.5709 115.549 39.7033C116.058 39.9234 116.649 39.6883 116.869 39.1788C117.089 38.6693 116.854 38.0783 116.345 37.8587C113.606 36.6773 110.603 36.3368 107.658 36.8739C104.643 37.4238 101.899 38.8642 99.7241 41.0393C96.8796 43.8839 95.3129 47.6659 95.3129 51.6889C95.3129 54.0235 95.8406 56.277 96.8393 58.3132L86.2171 68.9353C85.8248 69.3277 85.8248 69.9636 86.2171 70.3559C86.4133 70.552 86.6704 70.65 86.9274 70.65C87.1844 70.65 87.4416 70.552 87.6378 70.3559L97.8827 60.111C98.4185 60.9021 99.0336 61.6479 99.7241 62.3384C100.42 63.0339 101.167 63.647 101.953 64.1779L87.797 78.3345C87.2535 78.8781 86.531 79.1773 85.7625 79.1773C84.9941 79.1773 84.2715 78.8781 83.7282 78.3346C82.6063 77.2127 82.6063 75.3873 83.7282 74.2656L84.8916 73.1022C85.2839 72.7098 85.2839 72.0739 84.8916 71.6816C84.4992 71.2895 83.8633 71.2895 83.4711 71.6816L82.3077 72.845C80.4027 74.7501 80.4027 77.8498 82.3077 79.7551C83.2305 80.6781 84.4576 81.1863 85.7627 81.1863C87.0678 81.1863 88.2948 80.6781 89.2178 79.7552L103.754 65.2186C105.836 66.2349 108.105 66.743 110.374 66.7427C111.068 66.7427 111.761 66.6952 112.449 66.6001L111.004 69.1907L106.594 69.9905C106.234 70.0558 105.938 70.3114 105.821 70.6578L104.284 75.214C101.583 75.7025 98.0928 76.3335 96.7802 76.571C96.4017 76.6394 96.0956 76.918 95.9918 77.2883L93.4771 86.2637H75.2833C74.7284 86.2637 74.2788 86.7133 74.2788 87.2682C74.2788 87.823 74.7284 88.2726 75.2833 88.2726H128.639C129.194 88.2726 129.643 87.823 129.643 87.2682C129.643 86.7133 129.194 86.2637 128.639 86.2637H118.518L121.785 82.0653C123.485 81.4692 132.749 78.2205 135.137 77.383H140.84V86.2637H132.523C131.968 86.2637 131.518 86.7133 131.518 87.2682C131.518 87.823 131.968 88.2726 132.523 88.2726H141.844C142.399 88.2726 142.849 87.823 142.849 87.2682C142.849 79.4549 142.849 50.8601 142.849 43.0499ZM140.84 50.5873L138.779 52.6406L135.76 51.4717L133.839 46.0205L140.84 44.3264V50.5873ZM124.572 56.7363L126.848 56.4458C127.202 56.4007 127.505 56.172 127.645 55.8445L131.616 46.559L131.877 46.4958L134.019 52.5755C134.116 52.8522 134.33 53.0725 134.603 53.1785L138.663 54.7499C138.781 54.7956 138.904 54.8177 139.026 54.8177C139.287 54.8177 139.543 54.7158 139.735 54.5247L140.84 53.4234V61.1658L134.4 64.9713L123.078 65.222L120.683 62.6683C120.798 62.5605 120.911 62.4507 121.023 62.3387C122.633 60.7292 123.833 58.8197 124.572 56.7363ZM97.7565 78.4359L103.213 77.4491L105.89 79.6298L103.912 86.2637H95.5632L97.7565 78.4359ZM120.381 80.5984L115.973 86.2637H106.008L108.007 79.5614C108.123 79.1725 107.994 78.7518 107.679 78.4955L105.685 76.8718C105.827 76.7546 105.937 76.5987 105.998 76.418L107.535 71.8614L111.829 71.0828C112.125 71.0293 112.381 70.8461 112.527 70.5837L115.09 65.9904C116.509 65.5249 117.872 64.8435 119.128 63.9459L121.919 66.923C122.109 67.1257 122.375 67.2404 122.652 67.2404C122.659 67.2404 122.667 67.2402 122.674 67.2401L125.555 67.1764L120.976 72.2345C120.776 72.4557 120.685 72.7546 120.727 73.0501L121.71 79.9626L120.842 80.2673C120.659 80.3312 120.5 80.446 120.381 80.5984ZM134.966 75.3741C134.853 75.3741 134.74 75.3932 134.634 75.4307L123.643 79.285L122.782 73.2336L128.321 67.1152L134.708 66.9737C134.88 66.97 135.048 66.9219 135.196 66.8343L140.84 63.4993V75.3741H134.966Z" fill="white"/>
<path d="M102.721 44.0361C98.5014 48.256 98.5014 55.1218 102.721 59.3416C104.831 61.4516 107.602 62.5062 110.374 62.5062C113.145 62.5062 115.917 61.451 118.027 59.3416C122.246 55.1218 122.246 48.256 118.027 44.0361C113.806 39.8167 106.941 39.8167 102.721 44.0361ZM116.606 45.4567C120.042 48.8932 120.042 54.4848 116.606 57.921C113.169 61.3576 107.578 61.3576 104.142 57.921C100.705 54.4848 100.705 48.8932 104.142 45.4568C105.86 43.7384 108.117 42.8796 110.374 42.8796C112.63 42.8794 114.888 43.7387 116.606 45.4567Z" fill="white"/>
<path d="M86.4574 76.6097C86.7144 76.6097 86.9716 76.5116 87.1678 76.3156L87.7628 75.7205C88.1551 75.3281 88.1551 74.6923 87.7628 74.3C87.3704 73.9079 86.7345 73.9079 86.3422 74.3L85.7472 74.895C85.3549 75.2874 85.3549 75.9233 85.7472 76.3156C85.9433 76.5115 86.2004 76.6097 86.4574 76.6097Z" fill="white"/>
</g>
<defs>
<clipPath id="clip0_2_155">
<rect width="68.5699" height="68.5699" fill="white" transform="translate(74.2788 28.1645)"/>
</clipPath>
</defs>
</svg>
