<svg width="217" height="168" viewBox="0 0 217 168" fill="none" xmlns="http://www.w3.org/2000/svg">
<rect x="0.616699" y="0.736267" width="215.639" height="166.527" rx="15" fill="#108CFF"/>
<path d="M54.0539 127.541L51.8786 127.079C52.2204 125.942 53.0236 125.077 54.2883 124.486C55.5578 123.896 57.2253 123.6 59.2907 123.6C61.6931 123.6 63.5803 124.076 64.9523 125.028C66.3293 125.981 67.0178 127.309 67.0178 129.013C67.0178 130.722 66.3342 132.052 64.967 133.005C63.5998 133.957 61.7028 134.433 59.2761 134.433C57.1179 134.433 55.4016 134.132 54.1271 133.532C52.8527 132.931 52.0544 132.035 51.7321 130.844L54.0099 130.397C54.4201 131.994 56.1755 132.792 59.2761 132.792C60.9118 132.792 62.1911 132.528 63.114 132.001C64.0368 131.474 64.5812 130.702 64.7473 129.687H56.4562V128.156H64.7033C64.5031 127.199 63.944 126.474 63.0261 125.981C62.113 125.483 60.8679 125.234 59.2907 125.234C56.2829 125.234 54.5373 126.003 54.0539 127.541ZM69.6032 134.264V126.076H71.7199V129.87L78.2311 126.076H81.3806L74.6935 129.87L81.5417 134.264H78.3044L71.7199 130.068V134.264H69.6032ZM88.5656 134.433C86.4953 134.433 84.8889 134.059 83.7463 133.312C82.6086 132.565 82.0397 131.518 82.0397 130.17C82.0397 128.822 82.6086 127.773 83.7463 127.021C84.8889 126.269 86.4953 125.893 88.5656 125.893C90.6408 125.893 92.2473 126.269 93.3849 127.021C94.5226 127.773 95.0915 128.822 95.0915 130.17C95.0915 131.523 94.5251 132.572 93.3923 133.319C92.2595 134.062 90.6506 134.433 88.5656 134.433ZM85.3063 132.184C86.0388 132.643 87.1252 132.873 88.5656 132.873C90.006 132.873 91.09 132.643 91.8176 132.184C92.55 131.72 92.9162 131.049 92.9162 130.17C92.9162 129.286 92.5524 128.615 91.8249 128.156C91.0974 127.697 90.0109 127.467 88.5656 127.467C87.1203 127.467 86.0339 127.697 85.3063 128.156C84.5788 128.615 84.215 129.286 84.215 130.17C84.215 131.049 84.5788 131.72 85.3063 132.184ZM96.2634 132.821C96.9567 132.777 97.4719 132.568 97.8088 132.192C98.0822 131.894 98.2775 131.435 98.3947 130.815C98.5119 130.194 98.5851 129.255 98.6144 127.995L98.6657 126.076H108.773V134.264H106.656V127.709H100.658V128.251C100.624 129.711 100.504 130.844 100.299 131.65C100.094 132.455 99.779 133.068 99.3542 133.488C99.0319 133.81 98.634 134.042 98.1603 134.184C97.6916 134.325 97.0983 134.396 96.3806 134.396L96.2634 132.821ZM117.804 134.433C115.734 134.433 114.127 134.059 112.985 133.312C111.847 132.565 111.278 131.518 111.278 130.17C111.278 128.822 111.847 127.773 112.985 127.021C114.127 126.269 115.734 125.893 117.804 125.893C119.879 125.893 121.486 126.269 122.623 127.021C123.761 127.773 124.33 128.822 124.33 130.17C124.33 131.523 123.763 132.572 122.631 133.319C121.498 134.062 119.889 134.433 117.804 134.433ZM114.545 132.184C115.277 132.643 116.363 132.873 117.804 132.873C119.244 132.873 120.328 132.643 121.056 132.184C121.788 131.72 122.154 131.049 122.154 130.17C122.154 129.286 121.791 128.615 121.063 128.156C120.336 127.697 119.249 127.467 117.804 127.467C116.359 127.467 115.272 127.697 114.545 128.156C113.817 128.615 113.453 129.286 113.453 130.17C113.453 131.049 113.817 131.72 114.545 132.184ZM126.835 134.264V126.076H136.51V127.68H128.951V134.264H126.835ZM138.407 134.264V126.076H140.509V132.118L148.097 126.076H150.214V134.264H148.097V128.236L140.509 134.264H138.407ZM152.704 128.713C152.704 127.873 153.021 127.223 153.656 126.764C154.296 126.305 155.196 126.076 156.359 126.076H164.327V134.264H162.211V131.371H158.805L155.282 134.264H152.579L156.241 131.247C153.883 131.144 152.704 130.299 152.704 128.713ZM156.527 129.958H162.211V127.467H156.527C155.946 127.467 155.504 127.575 155.201 127.79C154.904 128 154.755 128.307 154.755 128.713C154.755 129.543 155.345 129.958 156.527 129.958Z" fill="white"/>
<path fill-rule="evenodd" clip-rule="evenodd" d="M138.118 22.0159C152.71 22.1322 168.934 25.2806 173.885 39.0078C179.219 53.7958 171.567 69.9318 158.613 78.8382C146.651 87.0624 131.204 84.8371 119.29 76.544C106.442 67.601 95.4432 53.2199 100.552 38.4235C105.483 24.144 123.012 21.8955 138.118 22.0159Z" fill="#3099FA"/>
<path d="M139.594 37.7658C138.665 34.845 137.407 32.7537 137.353 32.6659C137.147 32.3257 136.722 32.1487 136.337 32.237C136.237 32.2598 133.86 32.8146 131.119 34.1839C127.417 36.0319 124.831 38.4991 123.64 41.3174C122.649 43.6645 122.506 46.5338 123.21 49.7037C121.711 48.0303 120.026 46.5664 118.188 45.334C117.627 44.2256 116.144 41.4967 113.825 38.6446C113.061 37.7057 111.591 38.884 112.363 39.8323C113.926 41.7545 115.102 43.6449 115.838 44.9436L107.26 43.2714L99.1095 32.1546C99.9008 32.1656 100.695 32.2421 101.485 32.3971C103.99 32.8875 106.465 34.1635 108.842 36.1889C109.773 36.9826 110.982 35.5379 110.063 34.7552C107.438 32.5179 104.674 31.1023 101.847 30.5487C97.5322 29.7043 92.4998 30.8127 87.2923 33.7554C83.4111 35.9487 80.8156 38.3578 80.7074 38.4591C80.3601 38.7835 80.3048 39.3729 80.5955 39.7519C80.9761 40.5327 82.4184 43.3494 84.8193 46.382C86.2345 48.17 87.7271 49.7002 89.271 50.9577C88.8324 51.3253 88.4055 51.7099 87.9923 52.1144C85.7857 54.2728 84.0962 56.8188 82.987 59.6022C82.0065 62.0615 81.4791 64.7072 81.4497 67.4341C81.401 71.8933 82.6931 76.1939 85.1869 79.8719C87.6231 83.4644 91.0288 86.2227 95.0356 87.8482C96.1569 88.3022 96.8659 86.5581 95.7438 86.103C94.2921 85.5141 92.9282 84.7595 91.6703 83.8622C91.8312 82.97 92.2043 79.7589 90.0714 76.4348C89.7728 75.9699 90.6655 74.1438 91.1983 73.0531C91.7484 71.929 92.3161 70.7668 92.5814 69.6725C92.8631 68.5099 92.546 67.5341 91.6652 66.8495C91.0186 66.3469 90.1723 66.0867 89.4264 65.8572C88.9418 65.7081 88.3925 65.5394 88.1963 65.3758C87.7922 65.0372 87.1323 63.7859 86.6018 62.7811C86.0132 61.6664 85.453 60.6055 84.8809 59.9522C86.1682 56.8949 88.236 54.1896 90.8255 52.1199C93.1911 53.7313 95.8909 54.8432 98.7606 55.0685C95.4326 57.6471 94.356 60.9401 95.8948 64.1033C97.6919 67.797 101.391 67.2069 104.654 66.687C105.219 66.5968 105.803 66.5038 106.362 66.434C106.572 66.4077 106.635 66.465 106.678 66.5022C107.392 67.1379 107.371 70.1736 107.356 72.3904C107.335 75.4567 107.315 78.3531 108.457 79.8401C109.04 80.5982 109.861 80.9858 110.822 80.9858C111.399 80.9858 112.025 80.8469 112.682 80.5652C115.522 79.3489 118.474 75.6882 118.024 72.7918C117.63 70.2595 117.37 68.5865 117.984 67.2379C118.552 65.9898 119.924 64.8343 122.627 63.3598C122.951 64.8174 123.114 66.3339 123.097 67.8896C123.04 73.1998 120.917 78.1699 117.121 81.8835C112.878 86.0339 106.915 88.0836 101.017 87.4335C99.8153 87.3032 99.6078 89.1732 100.811 89.3058C107.267 90.0168 113.795 87.7725 118.438 83.2301C122.594 79.1641 124.917 73.7236 124.981 67.9096C125.064 60.2009 121.109 53.3715 115.088 49.4373C116.332 48.5502 117.259 47.7831 117.773 47.3378C119.968 48.9127 121.915 50.8529 123.535 53.1133C127.425 58.5408 128.967 65.1572 127.879 71.745C125.633 85.3438 112.743 94.5811 99.1416 92.3341C92.5535 91.2461 86.7838 87.6583 82.8948 82.2308C79.0053 76.8037 77.4629 70.1865 78.5509 63.5992C78.7463 62.4138 76.8893 62.1027 76.6931 63.2923C75.5227 70.3764 77.182 77.4919 81.3634 83.3282C85.5456 89.1638 91.7507 93.0223 98.8348 94.1927C100.316 94.4371 101.799 94.558 103.272 94.558C108.84 94.558 114.256 92.8292 118.871 89.522C124.709 85.3399 128.567 79.1358 129.737 72.0518C130.594 66.8609 129.931 61.6531 127.87 56.9439C128.821 56.6634 130.44 56.1188 132.213 55.2336C135.913 53.3856 138.499 50.9185 139.69 48.1001C140.882 45.281 140.849 41.7074 139.594 37.7658ZM84.9358 63.66C85.6366 64.9885 86.2993 66.2441 86.9879 66.82C87.4756 67.2277 88.1544 67.4364 88.8728 67.6573C90.7133 68.2231 90.9272 68.5009 90.7506 69.2287C90.534 70.1237 90.0114 71.1925 89.5064 72.2256C88.5338 74.2157 87.6153 76.0943 88.4859 77.4518C89.7207 79.376 89.9321 81.2703 89.911 82.4485C84.3018 77.3906 82.0178 69.4018 84.1072 62.1408C84.3842 62.6155 84.6753 63.1672 84.9358 63.66ZM130.499 45.1535L127.822 38.6678C129.125 37.4499 130.636 36.5334 131.923 35.8879C133.019 35.3378 134.062 34.9266 134.898 34.6351L130.499 45.1535ZM136.634 35.3653C137.008 36.1689 137.442 37.2051 137.812 38.3763C138.218 39.6616 138.591 41.2546 138.665 42.9163L132.393 45.5039L136.634 35.3653ZM125.375 42.0507C125.653 41.3939 126.012 40.785 126.426 40.2227L129.473 47.605L126.739 54.1425C126.355 53.3276 125.903 52.2572 125.519 51.0413C124.749 48.6067 124.099 45.0699 125.375 42.0507ZM131.408 53.5296C130.353 54.0593 129.346 54.4603 128.526 54.7495L131.363 47.9667L138.585 44.9868C138.48 45.7958 138.281 46.5978 137.955 47.3668C136.68 50.386 133.691 52.3851 131.408 53.5296ZM97.4506 52.9937C97.1178 52.9285 96.7894 52.8489 96.4657 52.7582L106.888 45.1182L115.47 46.7908C112.344 49.2541 104.736 54.4211 97.4506 52.9937ZM87.9252 47.1016C85.6962 44.6992 84.0624 42.1304 83.1243 40.4856L94.0457 42.6149L87.9252 47.1016ZM89.8541 34.537L94.4235 40.7697L83.4315 38.627C84.8154 37.5343 87.0997 35.8938 89.8541 34.537ZM97.148 41.3009L91.6083 33.7445C93.2668 33.0629 95.047 32.5266 96.8718 32.288L104.535 42.7405L97.148 41.3009ZM96.5619 43.1054L104.373 44.6277L94.3482 51.9755C92.4578 51.1025 90.7565 49.8473 89.2679 48.4521L96.5619 43.1054ZM122.116 61.4953C118.72 63.3041 117.058 64.7248 116.269 66.4579C115.422 68.3189 115.733 70.3164 116.162 73.0809C116.416 74.7112 114.479 77.7469 111.94 78.8341C111.001 79.2363 110.332 79.1888 109.951 78.6925C109.203 77.7186 109.223 74.7712 109.239 72.4033C109.261 69.1271 109.281 66.2978 107.929 65.0952C107.443 64.6628 106.821 64.48 106.13 64.5648C105.538 64.6385 104.938 64.7343 104.357 64.8269C100.895 65.3785 98.7171 65.5994 97.5887 63.2794C95.7603 59.5218 99.4614 56.7383 101.138 55.7162C101.479 55.5083 101.796 55.2631 102.09 54.99C106.141 54.5058 109.969 52.7677 113.38 50.5905C117.47 53.0341 120.61 56.9012 122.116 61.4953Z" fill="white"/>
</svg>
