<svg width="217" height="168" viewBox="0 0 217 168" fill="none" xmlns="http://www.w3.org/2000/svg">
<rect x="0.48877" y="0.736206" width="215.639" height="166.527" rx="15" fill="#108CFF"/>
<path d="M51.2233 134.264V123.761H61.1256C62.278 123.761 63.1837 123.996 63.8429 124.464C64.5021 124.933 64.8317 125.585 64.8317 126.42C64.8317 126.977 64.6705 127.47 64.3483 127.899C64.0309 128.329 63.5524 128.642 62.9127 128.837C63.7233 129.008 64.3361 129.318 64.7511 129.767C65.1661 130.211 65.3737 130.766 65.3737 131.43C65.3737 132.328 65.0343 133.026 64.3556 133.524C63.6769 134.018 62.7003 134.264 61.4259 134.264H51.2233ZM60.6935 125.307H53.3986V128.156H60.7374C61.3136 128.156 61.7653 128.034 62.0924 127.79C62.4196 127.541 62.5831 127.184 62.5831 126.72C62.5831 125.778 61.9532 125.307 60.6935 125.307ZM60.9132 129.716H53.3986V132.719H60.9425C61.67 132.719 62.2047 132.594 62.5465 132.345C62.8883 132.096 63.0592 131.725 63.0592 131.232C63.0592 130.734 62.8761 130.358 62.5099 130.104C62.1486 129.845 61.6163 129.716 60.9132 129.716ZM67.4318 128.441C67.7052 127.567 68.3058 126.925 69.2335 126.515C70.1661 126.1 71.4796 125.893 73.174 125.893C74.5411 125.893 75.6373 126.007 76.4625 126.237C77.2877 126.466 77.8834 126.813 78.2496 127.277C78.6158 127.741 78.799 128.349 78.799 129.101V132.133C78.799 132.392 78.8478 132.585 78.9454 132.711C79.048 132.838 79.2311 132.902 79.4948 132.902C79.6119 132.902 79.7462 132.885 79.8976 132.851L79.8536 134.279C79.4191 134.381 79.0431 134.433 78.7257 134.433C77.4952 134.433 76.8507 133.827 76.7921 132.616C76.2208 133.188 75.442 133.634 74.4557 133.957C73.4694 134.274 72.3829 134.433 71.1964 134.433C69.8536 134.433 68.8282 134.225 68.1202 133.81C67.4122 133.39 67.0582 132.787 67.0582 132.001C67.0582 131.234 67.3805 130.651 68.025 130.251C68.6744 129.85 69.712 129.608 71.1378 129.525L76.7628 129.24C76.7579 128.805 76.6407 128.459 76.4113 128.2C76.1866 127.936 75.8107 127.738 75.2833 127.606C74.756 127.475 74.048 127.409 73.1593 127.409C72.0314 127.409 71.1793 127.523 70.6031 127.753C70.027 127.978 69.6852 128.329 69.5778 128.808L67.4318 128.441ZM69.1896 131.906C69.1896 132.628 69.983 132.99 71.5699 132.99C72.5074 132.99 73.3717 132.892 74.1627 132.697C74.9586 132.497 75.5958 132.211 76.0743 131.84C76.5529 131.469 76.7921 131.051 76.7921 130.587V130.485L71.0133 130.814C70.3834 130.854 69.922 130.959 69.629 131.129C69.3361 131.3 69.1896 131.559 69.1896 131.906ZM82.007 134.264V126.076H84.1237V129.87L90.6349 126.076H93.7843L87.0973 129.87L93.9454 134.264H90.7081L84.1237 130.067V134.264H82.007ZM94.9415 128.441C95.215 127.567 95.8156 126.925 96.7433 126.515C97.6759 126.1 98.9894 125.893 100.684 125.893C102.051 125.893 103.147 126.007 103.972 126.237C104.797 126.466 105.393 126.813 105.759 127.277C106.126 127.741 106.309 128.349 106.309 129.101V132.133C106.309 132.392 106.358 132.585 106.455 132.711C106.558 132.838 106.741 132.902 107.005 132.902C107.122 132.902 107.256 132.885 107.407 132.851L107.363 134.279C106.929 134.381 106.553 134.433 106.235 134.433C105.005 134.433 104.36 133.827 104.302 132.616C103.731 133.188 102.952 133.634 101.965 133.957C100.979 134.274 99.8927 134.433 98.7062 134.433C97.3634 134.433 96.338 134.225 95.63 133.81C94.922 133.39 94.568 132.787 94.568 132.001C94.568 131.234 94.8903 130.651 95.5348 130.251C96.1842 129.85 97.2218 129.608 98.6476 129.525L104.273 129.24C104.268 128.805 104.151 128.459 103.921 128.2C103.696 127.936 103.32 127.738 102.793 127.606C102.266 127.475 101.558 127.409 100.669 127.409C99.5411 127.409 98.6891 127.523 98.1129 127.753C97.5367 127.978 97.1949 128.329 97.0875 128.808L94.9415 128.441ZM96.6993 131.906C96.6993 132.628 97.4928 132.99 99.0797 132.99C100.017 132.99 100.881 132.892 101.672 132.697C102.468 132.497 103.106 132.211 103.584 131.84C104.063 131.469 104.302 131.051 104.302 130.587V130.485L98.5231 130.814C97.8932 130.854 97.4318 130.959 97.1388 131.129C96.8458 131.3 96.6993 131.559 96.6993 131.906ZM109.517 134.264V126.076H111.633V129.167H119.251V126.076H121.367V134.264H119.251V130.756H111.633V134.264H109.517ZM136.528 128.896L134.368 129.313C134.055 128.083 132.705 127.467 130.318 127.467C128.901 127.467 127.835 127.697 127.117 128.156C126.404 128.615 126.047 129.286 126.047 130.17C126.047 131.049 126.406 131.72 127.124 132.184C127.842 132.643 128.911 132.873 130.332 132.873C132.764 132.873 134.119 132.248 134.397 130.998L136.558 131.415C136.304 132.397 135.64 133.146 134.566 133.664C133.491 134.176 132.08 134.433 130.332 134.433C128.291 134.433 126.704 134.057 125.571 133.305C124.439 132.553 123.872 131.508 123.872 130.17C123.872 128.827 124.439 127.78 125.571 127.028C126.704 126.271 128.286 125.893 130.318 125.893C132.041 125.893 133.44 126.149 134.514 126.662C135.589 127.174 136.26 127.919 136.528 128.896ZM138.828 134.264V126.076H140.93V132.118L148.518 126.076H150.635V134.264H148.518V128.236L140.93 134.264H138.828ZM153.901 134.264V126.076H156.004V132.118L163.591 126.076H165.708V134.264H163.591V128.236L156.004 134.264H153.901Z" fill="white"/>
<path fill-rule="evenodd" clip-rule="evenodd" d="M138.017 22.0158C152.609 22.1321 168.833 25.2805 173.784 39.0077C179.118 53.7957 171.466 69.9317 158.512 78.8381C146.55 87.0622 131.103 84.8369 119.189 76.5438C106.341 67.6009 95.3423 53.2198 100.451 38.4233C105.382 24.1439 122.911 21.8954 138.017 22.0158Z" fill="#3099FA"/>
<g clip-path="url(#clip0_2_263)">
<path d="M110.233 94.7253H80.0475C79.1259 94.7253 78.3761 93.9754 78.3761 93.0539V41.0041C78.3761 40.4494 77.9263 39.9996 77.3716 39.9996C76.8169 39.9996 76.3672 40.4494 76.3672 41.0041V93.0539C76.3672 95.0831 78.0182 96.7342 80.0475 96.7342H110.233C110.787 96.7342 111.237 96.2844 111.237 95.7297C111.237 95.175 110.787 94.7253 110.233 94.7253Z" fill="white"/>
<path d="M85.0723 38.7443H97.9292C98.4839 38.7443 98.9336 38.2946 98.9336 37.7399C98.9336 37.1852 98.4839 36.7354 97.9292 36.7354H85.0723C84.5176 36.7354 84.0679 37.1852 84.0679 37.7399C84.0679 38.2946 84.5176 38.7443 85.0723 38.7443Z" fill="white"/>
<path d="M97.9292 87.6272C98.4839 87.6272 98.9336 87.1775 98.9336 86.6228C98.9336 86.068 98.4839 85.6183 97.9292 85.6183H85.0723C84.5176 85.6183 84.0679 86.068 84.0679 86.6228C84.0679 87.1775 84.5176 87.6272 85.0723 87.6272H97.9292Z" fill="white"/>
<path d="M139.367 87.4773L129.045 77.155C129.044 77.1537 129.042 77.1526 129.041 77.1513L125.524 73.633C127.037 71.59 128.164 69.2787 128.827 66.8211C129.725 63.4954 129.767 59.9683 128.95 56.6207C128.819 56.0818 128.275 55.752 127.736 55.8831C127.197 56.0146 126.867 56.5582 126.999 57.097C127.736 60.1165 127.697 63.2981 126.888 66.2977C126.054 69.3883 124.409 72.2258 122.132 74.5033C114.952 81.6832 103.269 81.6832 96.0893 74.5033C88.9095 67.3234 88.9095 55.6408 96.0893 48.4609C99.5674 44.9827 104.192 43.0673 109.111 43.0673C114.029 43.0673 118.654 44.9827 122.132 48.4609C123.569 49.8986 124.749 51.5436 125.639 53.3503C125.884 53.8479 126.486 54.0532 126.983 53.8079C127.481 53.5629 127.686 52.9608 127.441 52.4632C126.897 51.3577 126.252 50.3095 125.518 49.3221V31.8445C125.518 29.8153 123.867 28.1642 121.838 28.1642H80.0475C78.0182 28.1642 76.3672 29.8153 76.3672 31.8445V36.7184C76.3672 37.2732 76.8169 37.7229 77.3716 37.7229C77.9263 37.7229 78.3761 37.2732 78.3761 36.7184V31.8445C78.3761 30.9229 79.1259 30.1731 80.0475 30.1731H121.838C122.759 30.1731 123.509 30.9229 123.509 31.8445V46.9983C119.656 43.1679 114.546 41.0586 109.111 41.0586C103.655 41.0586 98.5264 43.183 94.6689 47.0406C94.6309 47.0787 94.5942 47.1176 94.5566 47.1559H88.1322C87.5774 47.1559 87.1277 47.6057 87.1277 48.1604C87.1277 48.7151 87.5774 49.1648 88.1322 49.1648H92.8194C92.2084 49.9717 91.6654 50.8139 91.1902 51.6837H85.0724C84.5176 51.6837 84.0679 52.1334 84.0679 52.6881C84.0679 53.2429 84.5176 53.6926 85.0724 53.6926H90.2318C89.8931 54.5164 89.6103 55.3578 89.3838 56.2115H85.0724C84.5176 56.2115 84.0679 56.6612 84.0679 57.2159C84.0679 57.7706 84.5176 58.2203 85.0724 58.2203H88.9578C87.9538 64.4759 89.8566 71.1118 94.6689 75.9241C98.6505 79.9057 103.881 81.8965 109.111 81.8965C113.39 81.8965 117.668 80.563 121.264 77.8976L123.509 80.1422V93.0541C123.509 93.9757 122.759 94.7255 121.838 94.7255H114.468C113.914 94.7255 113.464 95.1753 113.464 95.73C113.464 96.2847 113.914 96.7344 114.468 96.7344H121.838C123.867 96.7344 125.518 95.0834 125.518 93.0541V82.1514L135.106 91.739C135.675 92.3082 136.431 92.6216 137.236 92.6216C138.041 92.6216 138.798 92.308 139.367 91.739H139.367C139.936 91.1698 140.25 90.4131 140.25 89.6082C140.25 88.8032 139.936 88.0464 139.367 87.4773ZM123.552 75.924C123.79 75.6867 124.019 75.442 124.243 75.1939L126.914 77.8652L125.494 79.2854L122.824 76.6168C123.071 76.3928 123.314 76.1622 123.552 75.924ZM137.947 90.3183C137.757 90.5081 137.505 90.6125 137.236 90.6125C136.968 90.6125 136.716 90.5081 136.526 90.3183L126.914 80.7063L128.335 79.2859L137.947 88.898C138.136 89.0878 138.241 89.3398 138.241 89.6082C138.241 89.8763 138.136 90.1285 137.947 90.3183Z" fill="white"/>
<path d="M97.5099 49.8816C94.4159 52.9757 92.7119 57.0955 92.7119 61.4824C92.7119 65.8693 94.416 69.9891 97.5099 73.0832C100.708 76.2814 104.909 77.8806 109.111 77.8806C113.312 77.8806 117.513 76.2816 120.711 73.0832C123.805 69.9891 125.509 65.8693 125.509 61.4824C125.509 57.0957 123.805 52.9757 120.711 49.8816C114.315 43.4848 103.907 43.4849 97.5099 49.8816ZM119.291 71.6625C116.484 74.4694 112.798 75.8728 109.111 75.8726C105.424 75.8722 101.737 74.4689 98.9304 71.6625C96.2157 68.9478 94.7207 65.3325 94.7207 61.4823C94.7207 57.632 96.2157 54.0166 98.9304 51.302C101.737 48.4953 105.424 47.0919 109.111 47.0919C112.797 47.0919 116.484 48.4953 119.291 51.302C122.005 54.0167 123.5 57.632 123.5 61.4823C123.5 65.3325 122.005 68.9479 119.291 71.6625Z" fill="white"/>
</g>
<defs>
<clipPath id="clip0_2_263">
<rect width="68.5699" height="68.5699" fill="white" transform="translate(74.0234 28.1642)"/>
</clipPath>
</defs>
</svg>
