<svg width="216" height="168" viewBox="0 0 216 168" fill="none" xmlns="http://www.w3.org/2000/svg">
<rect x="0.36084" y="0.698486" width="215.639" height="166.527" rx="15" fill="#108CFF"/>
<path d="M51.403 134.227V123.724H53.6075V128.733L61.9938 123.724H65.4435L56.9108 128.733L65.6998 134.227H62.0817L53.6075 128.975V134.227H51.403ZM72.7897 134.395C70.7194 134.395 69.1129 134.021 67.9703 133.274C66.8326 132.527 66.2638 131.48 66.2638 130.132C66.2638 128.785 66.8326 127.735 67.9703 126.983C69.1129 126.231 70.7194 125.855 72.7897 125.855C74.8649 125.855 76.4713 126.231 77.609 126.983C78.7467 127.735 79.3156 128.785 79.3156 130.132C79.3156 131.485 78.7491 132.535 77.6163 133.282C76.4835 134.024 74.8746 134.395 72.7897 134.395ZM69.5304 132.146C70.2628 132.605 71.3492 132.835 72.7897 132.835C74.2301 132.835 75.3141 132.605 76.0416 132.146C76.774 131.683 77.1403 131.011 77.1403 130.132C77.1403 129.249 76.7765 128.577 76.049 128.118C75.3214 127.659 74.235 127.43 72.7897 127.43C71.3444 127.43 70.2579 127.659 69.5304 128.118C68.8029 128.577 68.4391 129.249 68.4391 130.132C68.4391 131.011 68.8029 131.683 69.5304 132.146ZM81.8204 134.227V126.038H83.9371V129.129H91.5543V126.038H93.671V134.227H91.5543V130.718H83.9371V134.227H81.8204ZM100.585 134.227V127.671H95.5753V126.038H107.726V127.671H102.702V134.227H100.585ZM108.949 128.404C109.223 127.53 109.823 126.888 110.751 126.478C111.684 126.062 112.997 125.855 114.692 125.855C116.059 125.855 117.155 125.97 117.98 126.199C118.805 126.429 119.401 126.775 119.767 127.239C120.133 127.703 120.317 128.311 120.317 129.063V132.095C120.317 132.354 120.365 132.547 120.463 132.674C120.566 132.801 120.749 132.864 121.012 132.864C121.13 132.864 121.264 132.847 121.415 132.813L121.371 134.241C120.937 134.344 120.561 134.395 120.243 134.395C119.013 134.395 118.368 133.79 118.31 132.579C117.738 133.15 116.96 133.597 115.973 133.919C114.987 134.236 113.901 134.395 112.714 134.395C111.371 134.395 110.346 134.187 109.638 133.772C108.93 133.353 108.576 132.749 108.576 131.963C108.576 131.197 108.898 130.613 109.543 130.213C110.192 129.812 111.23 129.571 112.655 129.488L118.28 129.202C118.276 128.768 118.158 128.421 117.929 128.162C117.704 127.898 117.328 127.701 116.801 127.569C116.274 127.437 115.566 127.371 114.677 127.371C113.549 127.371 112.697 127.486 112.121 127.715C111.545 127.94 111.203 128.291 111.095 128.77L108.949 128.404ZM110.707 131.868C110.707 132.591 111.501 132.952 113.088 132.952C114.025 132.952 114.889 132.854 115.68 132.659C116.476 132.459 117.113 132.173 117.592 131.802C118.07 131.431 118.31 131.014 118.31 130.55V130.447L112.531 130.777C111.901 130.816 111.44 130.921 111.147 131.092C110.854 131.263 110.707 131.521 110.707 131.868ZM123.525 134.227V126.038H125.641V129.832L132.152 126.038H135.302L128.615 129.832L135.463 134.227H132.226L125.641 130.03V134.227H123.525ZM141.132 134.227V127.671H136.122V126.038H148.273V127.671H143.249V134.227H141.132ZM163.163 134.227V126.038H165.28V134.227H163.163ZM150.185 134.227V126.038H152.301V128.47H157.985C159.162 128.47 160.068 128.721 160.702 129.224C161.342 129.727 161.662 130.435 161.662 131.348C161.662 132.266 161.342 132.977 160.702 133.479C160.068 133.978 159.162 134.227 157.985 134.227H150.185ZM157.743 129.891H152.301V132.798H157.743C158.984 132.798 159.604 132.32 159.604 131.363C159.604 130.879 159.445 130.513 159.128 130.264C158.815 130.015 158.354 129.891 157.743 129.891Z" fill="white"/>
<path fill-rule="evenodd" clip-rule="evenodd" d="M137.889 21.9781C152.482 22.0944 168.705 25.2428 173.656 38.97C178.99 53.758 171.338 69.894 158.384 78.8004C146.423 87.0246 130.975 84.7993 119.061 76.5061C106.214 67.5632 95.2146 53.1821 100.324 38.3856C105.254 24.1062 122.783 21.8577 137.889 21.9781Z" fill="#3099FA"/>
<g clip-path="url(#clip0_40_117)">
<path d="M139.29 34.7018H91.7913C90.1956 34.7036 88.9024 35.9968 88.9006 37.5925V50.6937L86.7286 47.4357C85.7344 45.936 83.7349 45.486 82.1942 46.4154L77.7255 49.1021C76.2621 49.9608 75.1886 51.3533 74.7305 52.987C73.1004 58.9226 74.3099 69.1489 89.3201 84.1614C101.257 96.0858 110.157 99.2974 116.291 99.2974C117.711 99.3039 119.126 99.1193 120.497 98.7487C122.13 98.2907 123.522 97.2186 124.383 95.7572L127.066 91.2839C127.991 89.7443 127.542 87.749 126.046 86.755L115.345 79.6223C113.878 78.6515 111.91 78.9707 110.825 80.3558L107.709 84.3608C107.384 84.7893 106.793 84.9142 106.322 84.6544L105.729 84.3278C103.778 83.2645 101.35 81.9405 96.4458 77.0365C95.9152 76.5059 95.4346 76.0095 94.9834 75.5344H139.29C140.881 75.5356 142.174 74.249 142.18 72.6572V37.5925C142.178 35.9968 140.885 34.7036 139.29 34.7018ZM104.644 86.3186L105.22 86.635C106.668 87.4444 108.49 87.0688 109.499 85.753L112.615 81.748C112.969 81.2968 113.61 81.1928 114.088 81.5087L124.788 88.6414C125.274 88.9655 125.421 89.614 125.12 90.1151L122.437 94.5884C121.877 95.5493 120.966 96.256 119.897 96.5609C114.538 98.0345 105.16 96.7877 90.9262 82.5529C76.6925 68.3181 75.4503 58.9407 76.9205 53.5867C77.2251 52.5171 77.9314 51.6069 78.8918 51.0463L83.3651 48.3619C83.8663 48.0624 84.5144 48.2084 84.8387 48.694L91.9748 59.3941C92.2912 59.8726 92.1872 60.514 91.7355 60.8678L87.7293 63.9841C86.4137 64.9933 86.038 66.8151 86.8473 68.2623L87.1647 68.8382C88.2983 70.9172 89.7074 73.5041 94.8438 78.6394C99.9804 83.7748 102.566 85.1849 104.644 86.3186ZM139.913 72.6574C139.909 72.9984 139.631 73.2721 139.29 73.2695H92.9384C91.4661 71.5859 90.1965 69.7353 89.1555 67.7557L88.829 67.1605C88.5686 66.6902 88.6932 66.1001 89.1215 65.7752L93.1277 62.6589C94.5133 61.5736 94.8325 59.6059 93.8612 58.1381L91.1677 54.0956V37.5925C91.1659 37.4266 91.231 37.2669 91.3483 37.1496C91.4656 37.0323 91.6252 36.9672 91.7912 36.9691H139.29C139.455 36.9672 139.615 37.0323 139.732 37.1496C139.85 37.2669 139.915 37.4266 139.913 37.5925V72.6574H139.913Z" fill="white"/>
<path d="M135.385 39.9505L116.439 54.319C115.903 54.7085 115.177 54.7085 114.641 54.319L95.7023 39.9505C95.2033 39.572 94.4919 39.6698 94.1136 40.1688C93.7351 40.6677 93.8329 41.3791 94.3318 41.7575L113.273 56.1248C114.621 57.1203 116.46 57.1203 117.808 56.1248L136.755 41.7575C136.995 41.5757 137.152 41.306 137.193 41.0079C137.234 40.7098 137.155 40.4078 136.972 40.1682C136.594 39.6702 135.884 39.5728 135.385 39.9505Z" fill="white"/>
<path d="M105.866 56.22L94.2535 68.6558C93.8265 69.1137 93.8516 69.8312 94.3095 70.2582C94.7675 70.6852 95.4849 70.66 95.9119 70.2021L107.525 57.7608C107.908 57.2979 107.864 56.6161 107.423 56.2068C106.983 55.7975 106.3 55.8033 105.866 56.22Z" fill="white"/>
<path d="M125.29 56.22C124.863 55.7621 124.145 55.7369 123.687 56.164C123.229 56.591 123.204 57.3083 123.631 57.7664L135.241 70.2021C135.668 70.6601 136.385 70.6853 136.843 70.2582C137.301 69.8312 137.326 69.1139 136.899 68.6558L125.29 56.22Z" fill="white"/>
</g>
<defs>
<clipPath id="clip0_40_117">
<rect width="68" height="68" fill="white" transform="translate(74.1802 32.9996)"/>
</clipPath>
</defs>
</svg>
