<svg width="193" height="193" viewBox="0 0 193 193" fill="none" xmlns="http://www.w3.org/2000/svg">
<path d="M181.902 95.8572C181.902 142.67 143.952 180.62 97.139 180.62C50.326 180.62 12.3765 142.67 12.3765 95.8572C12.3765 49.0442 50.326 11.0947 97.139 11.0947C143.952 11.0947 181.902 49.0442 181.902 95.8572Z" fill="white"/>
<path d="M172.91 95.8572C172.91 137.713 138.98 171.644 97.124 171.644C55.2683 171.644 21.3376 137.713 21.3376 95.8572C21.3376 54.0016 55.2683 20.0709 97.124 20.0709C138.98 20.0709 172.91 54.0016 172.91 95.8572Z" stroke="#CAD5DF"/>
<path d="M151.129 119.513L160.336 124.566L155.571 133.247C155.016 134.257 154.375 134.938 153.647 135.291C152.919 135.643 152.189 135.618 151.457 135.217C150.969 134.949 150.614 134.57 150.393 134.081C150.169 133.596 150.125 133.026 150.262 132.371C149.722 133 149.155 133.388 148.562 133.535C147.972 133.685 147.387 133.601 146.804 133.281C146.017 132.849 145.568 132.215 145.458 131.381C145.352 130.548 145.606 129.574 146.219 128.457L151.129 119.513ZM154.424 132.125L157.934 125.73L155.437 124.359L151.905 130.792C151.628 131.297 151.518 131.752 151.574 132.156C151.635 132.563 151.869 132.878 152.276 133.101C153.102 133.554 153.818 133.229 154.424 132.125ZM150.453 130.196L154.069 123.608L151.437 122.163L147.807 128.776C147.457 129.414 147.308 129.943 147.362 130.362C147.416 130.782 147.659 131.11 148.092 131.347C148.528 131.587 148.946 131.607 149.345 131.409C149.745 131.216 150.115 130.812 150.453 130.196Z" fill="#1E1E1E"/>
<path d="M132.283 144.032L139.509 151.653L137.899 153.18L130.672 145.559L132.283 144.032ZM143.115 133.741L150.342 141.362L148.731 142.889L146.348 140.375L141.341 145.122C140.409 146.006 139.455 146.473 138.48 146.523C137.505 146.58 136.646 146.217 135.903 145.433C135.157 144.647 134.837 143.766 134.942 142.792C135.048 141.824 135.566 140.898 136.498 140.015L143.115 133.741ZM140.442 143.674L145.199 139.163L142.639 136.463L137.882 140.974C137.347 141.481 137.048 141.982 136.987 142.478C136.922 142.977 137.101 143.45 137.524 143.896C137.941 144.336 138.398 144.535 138.897 144.493C139.392 144.454 139.907 144.181 140.442 143.674Z" fill="#1E1E1E"/>
<path d="M128.095 146.907L132.741 156.326L121.357 161.941L120.619 160.443L130.077 155.778L128.976 153.544L122.171 156.901C121.107 157.426 120.148 157.585 119.296 157.38C118.443 157.174 117.796 156.625 117.356 155.732C116.917 154.843 116.876 153.997 117.232 153.196C117.585 152.401 118.292 151.742 119.352 151.219L128.095 146.907ZM121.75 155.303L128.26 152.093L126.88 149.295L120.37 152.505C119.805 152.784 119.437 153.113 119.264 153.492C119.087 153.873 119.11 154.289 119.333 154.74C119.56 155.2 119.881 155.477 120.298 155.571C120.71 155.667 121.194 155.578 121.75 155.303Z" fill="#1E1E1E"/>
<path d="M107.406 154.57C109.903 154.084 111.93 154.172 113.486 154.834C115.039 155.502 115.977 156.668 116.3 158.331C116.629 160.018 116.201 161.462 115.017 162.662C113.829 163.868 111.981 164.715 109.474 165.203C106.968 165.691 104.938 165.598 103.384 164.925C101.831 164.258 100.892 163.085 100.566 161.407C100.24 159.735 100.672 158.298 101.861 157.096C103.051 155.9 104.899 155.058 107.406 154.57ZM112.128 156.367C111.055 155.939 109.591 155.906 107.736 156.267C105.881 156.627 104.537 157.21 103.703 158.014C102.866 158.823 102.561 159.81 102.787 160.975C103.016 162.149 103.67 162.955 104.75 163.391C105.825 163.834 107.291 163.874 109.146 163.513C111.001 163.153 112.344 162.565 113.176 161.752C114.007 160.939 114.308 159.942 114.079 158.763C113.852 157.599 113.202 156.8 112.128 156.367Z" fill="#1E1E1E"/>
<path d="M97.7784 156.083L96.9413 166.553L88.0269 165.84C86.6251 165.728 85.5566 165.307 84.8214 164.577C84.0859 163.852 83.7646 162.908 83.8576 161.745C83.9498 160.591 84.4215 159.715 85.2727 159.117C86.1186 158.524 87.2497 158.283 88.6661 158.397L95.3246 158.929L95.5662 155.906L97.7784 156.083ZM88.537 164.147L94.8669 164.653L95.1874 160.645L88.8575 160.139C88.0008 160.07 87.3423 160.189 86.8819 160.495C86.4214 160.801 86.1653 161.278 86.1136 161.925C86.0607 162.587 86.2372 163.106 86.6431 163.481C87.0491 163.856 87.6803 164.078 88.537 164.147Z" fill="#1E1E1E"/>
<path d="M56.7409 140.961L48.831 147.871L39.4927 137.181L47.4025 130.271L48.8626 131.942L42.2545 137.715L48.6728 145.062L55.2809 139.29L56.7409 140.961Z" fill="#1E1E1E"/>
<path d="M45.8156 127.565L36.3132 132.039L32.5038 123.948C31.9047 122.675 31.7394 121.539 32.0076 120.538C32.2715 119.54 32.9313 118.792 33.9871 118.295C35.0341 117.802 36.0286 117.776 36.9705 118.218C37.9059 118.657 38.6762 119.52 39.2815 120.805L42.1269 126.849L44.8702 125.557L45.8156 127.565ZM34.2267 123.549L36.9317 129.295L40.5697 127.582L37.8647 121.837C37.4986 121.059 37.0684 120.547 36.574 120.299C36.0797 120.051 35.5387 120.066 34.9512 120.343C34.3504 120.625 33.9879 121.036 33.8638 121.575C33.7397 122.114 33.8607 122.772 34.2267 123.549Z" fill="#1E1E1E"/>
<path d="M38.6182 106.979C39.0581 109.484 38.9327 111.509 38.242 113.053C37.5457 114.593 36.3631 115.51 34.6943 115.803C33.0014 116.1 31.5658 115.646 30.3873 114.44C29.2033 113.23 28.3904 111.367 27.9489 108.852C27.5073 106.337 27.6371 104.309 28.3382 102.768C29.0346 101.227 30.2244 100.31 31.9076 100.014C33.586 99.7195 35.0149 100.178 36.1942 101.388C37.3686 102.6 38.1767 104.464 38.6182 106.979ZM36.7345 111.667C37.1821 110.602 37.2425 109.139 36.9157 107.278C36.589 105.416 36.0314 104.062 35.243 103.214C34.449 102.362 33.4676 102.038 32.2989 102.243C31.1207 102.45 30.3034 103.089 29.847 104.161C29.385 105.229 29.3174 106.693 29.6441 108.554C29.9709 110.415 30.5333 111.769 31.3313 112.616C32.1293 113.462 33.1199 113.781 34.3029 113.574C35.4716 113.369 36.2821 112.733 36.7345 111.667Z" fill="#1E1E1E"/>
<path d="M38.2567 91.0522L36.8172 90.8764L36.7045 91.7997C36.4458 93.9178 35.8769 95.5159 34.9975 96.594C34.1139 97.6667 33.0008 98.1211 31.6583 97.9571C30.3157 97.7932 29.3449 97.0819 28.746 95.8233C28.1428 94.5592 27.97 92.873 28.2274 90.7646L28.3401 89.8413L27.0751 89.6868L27.3477 87.4549L28.6127 87.6094L28.7325 86.6279C28.9906 84.5147 29.5641 82.9196 30.4532 81.8427C31.3374 80.7651 32.4507 80.3083 33.7933 80.4723C35.1359 80.6362 36.1066 81.3475 36.7055 82.6061C37.3002 83.8593 37.4682 85.5449 37.2096 87.663L37.0898 88.6445L38.5293 88.8202L38.2567 91.0522ZM35.3422 83.9818C34.9929 83.1767 34.3893 82.7217 33.5314 82.617C32.6735 82.5122 31.9782 82.8085 31.4454 83.5059C30.9083 84.1979 30.5499 85.2806 30.3699 86.754L30.2394 87.8228L35.4595 88.4602L35.59 87.3914C35.7699 85.918 35.6873 84.7815 35.3422 83.9818ZM30.1084 94.4549C30.4584 95.2552 31.0623 95.7077 31.9201 95.8124C32.778 95.9172 33.4731 95.6233 34.0053 94.9307C34.5332 94.2327 34.8872 93.147 35.0671 91.6736L35.1905 90.663L29.9705 90.0256L29.8471 91.0362C29.6671 92.5096 29.7543 93.6492 30.1084 94.4549Z" fill="#1E1E1E"/>
<path d="M39.9231 79.5601L30.2412 75.4891L35.127 63.8695L36.6394 64.5055L32.5911 74.1333L35.0487 75.1667L38.7166 66.4435L40.2222 67.0766L36.5543 75.7997L39.2549 76.9353L43.3487 67.1994L44.8543 67.8325L39.9231 79.5601Z" fill="#1E1E1E"/>
<path d="M41.2116 63.5342C39.8752 62.4926 39.2559 61.1307 39.3536 59.4487C39.4513 57.7666 40.2641 55.9455 41.792 53.9853C43.0678 52.3485 44.3332 51.2176 45.5882 50.5923C46.8432 49.9671 48.0345 49.8804 49.162 50.3321L48.0863 52.4746C46.5692 51.9111 44.9236 52.7674 43.1495 55.0434C42.0179 56.4953 41.4082 57.7937 41.3205 58.9388C41.2319 60.077 41.6594 61.0138 42.6029 61.7492C43.5503 62.4877 44.5635 62.677 45.6427 62.3171C46.7248 61.9533 47.8347 61.0417 48.9724 59.5821C50.8215 57.2098 51.2408 55.3853 50.2302 54.1085L52.0157 52.5564C52.7696 53.5589 53.0016 54.7426 52.7115 56.1076C52.4244 57.4687 51.6325 58.9811 50.3357 60.6447C48.7958 62.6204 47.2271 63.8585 45.6296 64.3592C44.0283 64.8568 42.5556 64.5818 41.2116 63.5342Z" fill="#1E1E1E"/>
<path d="M52.4998 49.6735C51.5021 48.304 51.2818 46.8243 51.8391 45.2342C52.3963 43.6441 53.6793 42.1173 55.6881 40.6538C57.3654 39.4318 58.8933 38.6931 60.272 38.4378C61.6507 38.1825 62.8197 38.4272 63.7792 39.1721L62.155 40.9354C60.8518 39.9758 59.034 40.3456 56.7016 42.0449C55.2138 43.1289 54.27 44.2092 53.8703 45.2858C53.4716 46.3556 53.6245 47.3739 54.329 48.3408C55.0363 49.3116 55.9582 49.7727 57.0947 49.724C58.2352 49.6724 59.5533 49.1017 61.049 48.012C63.4801 46.2409 64.3857 44.6024 63.7659 43.0966L65.9098 42.0964C66.3585 43.2678 66.2554 44.4696 65.6005 45.7018C64.9496 46.9312 63.7717 48.167 62.0669 49.4091C60.0423 50.8841 58.1933 51.6422 56.5197 51.6835C54.8432 51.7208 53.5032 51.0508 52.4998 49.6735Z" fill="#1E1E1E"/>
<path d="M69.4571 44.1778L65.8637 34.3087L67.9215 33.5595L70.6879 41.1575L77.2125 30.1766L79.2703 29.4273L82.8636 39.2964L80.8059 40.0457L78.0444 32.4615L71.5149 43.4286L69.4571 44.1778Z" fill="#1E1E1E"/>
<path d="M92.6908 38.4133C90.1518 38.5729 88.1533 38.2241 86.6953 37.3666C85.2418 36.504 84.4619 35.2272 84.3555 33.5362C84.2476 31.8209 84.8582 30.4444 86.1873 29.4067C87.521 28.3639 89.4621 27.7624 92.0108 27.6021C94.5595 27.4418 96.5607 27.7954 98.0145 28.6629C99.468 29.5255 100.248 30.8096 100.356 32.5152C100.463 34.216 99.8492 35.5853 98.5152 36.6232C97.1809 37.6563 95.2394 38.253 92.6908 38.4133ZM88.2399 36.0219C89.2489 36.5847 90.6964 36.8068 92.5823 36.6882C94.4682 36.5695 95.8763 36.1654 96.8065 35.4758C97.7413 34.781 98.1714 33.8415 98.097 32.6573C98.0219 31.4634 97.4771 30.5803 96.4626 30.0081C95.4527 29.4307 94.0048 29.2013 92.1189 29.3199C90.2329 29.4385 88.8252 29.8475 87.8956 30.5469C86.9659 31.2463 86.5388 32.1954 86.6142 33.3942C86.6887 34.5783 87.2306 35.4543 88.2399 36.0219Z" fill="#1E1E1E"/>
<path d="M102.342 37.9737L104.681 27.7346L106.845 28.229L105.902 32.356L115.734 34.6026L116.677 30.4756L118.84 30.97L116.501 41.209L114.337 40.7146L115.345 36.302L105.513 34.0554L104.505 38.468L102.342 37.9737Z" fill="#1E1E1E"/>
<path d="M129.71 48.1345L129.462 45.1913L122.252 41.2335L119.649 42.612L117.479 41.4208L128.754 35.6287L130.751 36.7247L131.957 49.368L129.71 48.1345ZM123.981 40.3362L129.291 43.2507L128.829 37.7753L123.981 40.3362Z" fill="#1E1E1E"/>
<path d="M132.286 47.4486C132.65 47.7472 132.995 47.9633 133.321 48.0967C133.651 48.2336 133.994 48.2735 134.349 48.2166C134.89 48.1363 135.491 47.8428 136.154 47.3361C136.817 46.8293 137.846 45.896 139.242 44.5362L140.601 43.2218L149.4 51.7712L142.08 59.3038L140.489 57.7572L146.603 51.4643L140.957 45.9774L140.706 46.2141C139.133 47.7353 137.924 48.7937 137.079 49.3894C136.235 49.9851 135.423 50.3162 134.644 50.3826C134.023 50.4261 133.443 50.3291 132.904 50.0916C132.369 49.8576 131.787 49.4447 131.157 48.8529L132.286 47.4486Z" fill="#1E1E1E"/>
<path d="M147.274 67.7607C146.01 65.5531 145.44 63.6059 145.566 61.919C145.698 60.234 146.5 58.9706 147.97 58.1286C149.462 57.2745 150.966 57.2147 152.484 57.9492C154.008 58.6855 155.405 60.1617 156.674 62.3778C157.943 64.5939 158.509 66.5457 158.373 68.2331C158.24 69.9181 157.433 71.1852 155.95 72.0344C154.471 72.8813 152.971 72.9353 151.451 72.1966C149.935 71.4554 148.543 69.9768 147.274 67.7607ZM147.455 62.7113C147.395 63.8651 147.835 65.2619 148.774 66.9018C149.713 68.5416 150.697 69.6266 151.726 70.1568C152.763 70.6889 153.795 70.6601 154.825 70.0705C155.863 69.476 156.415 68.5973 156.481 67.4344C156.553 66.2734 156.12 64.8729 155.181 63.2331C154.241 61.5933 153.253 60.5107 152.215 59.9853C151.177 59.4599 150.137 59.4957 149.095 60.0926C148.065 60.6822 147.518 61.5551 147.455 62.7113Z" fill="#1E1E1E"/>
<path d="M151.802 76.0649L161.985 73.4958L164.408 83.0973C164.69 84.2146 164.684 85.1502 164.391 85.904C164.097 86.6578 163.546 87.1369 162.736 87.3411C162.197 87.4773 161.679 87.4417 161.184 87.2343C160.689 87.0316 160.269 86.6441 159.923 86.0717C159.956 86.8994 159.805 87.5694 159.471 88.0817C159.142 88.5928 158.655 88.9296 158.011 89.0921C157.14 89.3118 156.38 89.1536 155.731 88.6173C155.087 88.0799 154.609 87.1933 154.297 85.9576L151.802 76.0649ZM162.804 83.0563L161.019 75.983L158.257 76.6799L160.052 83.7958C160.193 84.3545 160.421 84.7626 160.738 85.0201C161.06 85.2764 161.445 85.3478 161.895 85.2343C162.809 85.0038 163.112 84.2778 162.804 83.0563ZM158.582 84.3479L156.744 77.0615L153.832 77.7961L155.678 85.1108C155.855 85.8163 156.107 86.3042 156.432 86.5747C156.757 86.8452 157.159 86.9202 157.637 86.7995C158.12 86.6777 158.44 86.4082 158.596 85.991C158.759 85.5774 158.754 85.0297 158.582 84.3479Z" fill="#1E1E1E"/>
<g clip-path="url(#clip0_2_800)">
<path d="M91.2297 119.183C91.9227 119.326 92.6234 119.068 93.0584 118.51L100.684 108.728L113.066 109.465C113.772 109.507 114.429 109.151 114.779 108.536C115.129 107.921 115.101 107.175 114.704 106.589L107.758 96.3138L112.284 84.7658C112.542 84.107 112.407 83.3729 111.93 82.8497C111.454 82.3264 110.735 82.1232 110.055 82.3189L98.1362 85.7503L94.42 82.6973C94.1575 82.4816 93.7698 82.5196 93.5541 82.7821C93.3382 83.045 93.3764 83.4324 93.6389 83.6481L97.605 86.9064C97.7615 87.0349 97.9712 87.0783 98.1658 87.0223L110.396 83.5015C110.626 83.4352 110.86 83.5014 111.021 83.6783C111.182 83.8553 111.226 84.094 111.139 84.3169L106.494 96.1659C106.42 96.3544 106.444 96.5672 106.557 96.735L113.685 107.278C113.819 107.477 113.828 107.719 113.71 107.927C113.591 108.135 113.378 108.251 113.139 108.237L100.435 107.481C100.233 107.469 100.037 107.557 99.913 107.717L92.0881 117.754C91.9409 117.943 91.7131 118.027 91.4787 117.978C91.2443 117.93 91.0683 117.762 91.008 117.531L87.8009 105.215C87.7498 105.019 87.6057 104.86 87.4153 104.791L75.4514 100.451C75.2264 100.37 75.0763 100.179 75.05 99.9409C75.0237 99.703 75.1282 99.484 75.3299 99.355L86.0521 92.499C86.2227 92.3898 86.3287 92.2038 86.3356 92.0015L86.7664 79.282C86.7745 79.0427 86.9096 78.841 87.1276 78.7425C87.3457 78.6438 87.5864 78.6757 87.7713 78.8277L91.7375 82.086C92 82.3017 92.3876 82.2637 92.6034 82.0012C92.819 81.7383 92.781 81.3509 92.5185 81.1353L88.5523 77.8769C88.0055 77.4277 87.2654 77.3298 86.6206 77.6213C86.2563 77.786 85.9652 78.0558 85.7766 78.3868C85.6315 78.6416 85.547 78.9327 85.5365 79.2403L85.1167 91.6365L74.667 98.3183C74.0709 98.6995 73.7491 99.3732 73.827 100.076C73.9049 100.78 74.3667 101.367 75.0318 101.608L86.6916 105.838L89.8172 117.841C89.9955 118.526 90.5368 119.04 91.2297 119.183Z" fill="#1E1E1E"/>
</g>
<circle cx="67.5" cy="154.236" r="2.5" fill="#1E1E1E"/>
<circle cx="158.5" cy="104.236" r="2.5" fill="#1E1E1E"/>
<defs>
<clipPath id="clip0_2_800">
<rect width="42" height="42" fill="white" transform="translate(125.99 90.7543) rotate(119.672)"/>
</clipPath>
</defs>
</svg>
